<svg t="1686444293660" class="icon" viewBox="0 0 1024 1024" version="1.1" xmlns="http://www.w3.org/2000/svg" p-id="1901" width="200" height="200"><path d="M928 51.68H94.72a80 80 0 0 0-80 80v612a80 80 0 0 0 80 80h406.72v137.76H281.28a16 16 0 1 0 0 32h460.16a16 16 0 0 0 0-32h-208v-137.28H928a80 80 0 0 0 80-80V132.32a80 80 0 0 0-80-80.64z m48 692a48 48 0 0 1-48 48H94.72a48 48 0 0 1-48-48V132.32a48 48 0 0 1 48-48H928a48 48 0 0 1 48 48z" fill="#3FA9F5" p-id="1902"></path><path d="M459.04 465.44h-17.6V247.68a16 16 0 0 0-32 0v217.76h-17.76a16 16 0 0 0-16 16v92.32a16 16 0 0 0 16 16h17.76v32a16 16 0 0 0 32 0v-32h17.6a16 16 0 0 0 16-16v-92.32a16 16 0 0 0-16-16z m-16 92.32h-35.36v-60.32h35.36zM816 421.92h-18.56V247.68a16 16 0 0 0-32 0v174.24h-17.76a16 16 0 0 0-16 16v92.32a16 16 0 0 0 16 16h16v80a16 16 0 0 0 32 0v-80H816a16 16 0 0 0 16-16v-92.32a16 16 0 0 0-16-16z m-16 92.32h-36.32v-60.32H800zM637.12 345.12h-17.76v-97.44a16 16 0 1 0-32 0v97.44h-17.6a16 16 0 0 0-16 16v92.32a16 16 0 0 0 16 16h18.24a16.96 16.96 0 0 0 0 3.04v154.08a16 16 0 0 0 32 0v-154.08a9.28 9.28 0 0 0 0-3.04h18.4a16 16 0 0 0 16-16v-92.32a16 16 0 0 0-17.28-16z m-16 92.32h-35.36v-60.32h35.36zM281.12 291.84h-17.76v-44.16a16 16 0 0 0-32 0v44.16h-17.76a16 16 0 0 0-16 16V400a16 16 0 0 0 16 16h17.76v210.56a16 16 0 0 0 32 0V416h17.76a16 16 0 0 0 16-16v-92.16a16 16 0 0 0-16-16z m-16 92.48h-35.52v-60.48h35.52z" fill="#3FA9F5" p-id="1903"></path></svg>